<svg class="svg-icon" style="width: 1em; height: 1em;vertical-align: middle;fill: currentColor;overflow: hidden;" viewBox="0 0 1024 1024" version="1.1" xmlns="http://www.w3.org/2000/svg"><path d="M682.666667 512C682.666667 465.066667 721.066667 426.666667 768 426.666667 814.933333 426.666667 853.333333 465.066667 853.333333 512 853.333333 558.933333 814.933333 597.333333 768 597.333333 721.066667 597.333333 682.666667 558.933333 682.666667 512M426.666667 512C426.666667 465.066667 465.066667 426.666667 512 426.666667 558.933333 426.666667 597.333333 465.066667 597.333333 512 597.333333 558.933333 558.933333 597.333333 512 597.333333 465.066667 597.333333 426.666667 558.933333 426.666667 512M170.666667 512C170.666667 465.066667 209.066667 426.666667 256 426.666667 302.933333 426.666667 341.333333 465.066667 341.333333 512 341.333333 558.933333 302.933333 597.333333 256 597.333333 209.066667 597.333333 170.666667 558.933333 170.666667 512Z"  /></svg>